<svg width="1920" height="12262" viewBox="0 0 1920 12262" fill="none" xmlns="http://www.w3.org/2000/svg">
<g clip-path="url(#clip0_132_386)">
<g clip-path="url(#clip1_132_386)">
<rect width="1920" height="7401" fill="white"/>
<path d="M1920 0H0V7401H1920V0Z" fill="#DCF8FC"/>
<g filter="url(#filter0_f_132_386)">
<path d="M1119 7232.4C1399.01 7232.4 1626 5676.87 1626 3758.04C1626 1839.2 1399.01 283.681 1119 283.681C838.992 283.681 612 1839.2 612 3758.04C612 5676.87 838.992 7232.4 1119 7232.4Z" fill="url(#paint0_linear_132_386)"/>
</g>
<g filter="url(#filter1_f_132_386)">
<path d="M1690.01 64.7262C1602.95 -348.79 1511.76 31.4768 1428.85 -417.445C1283.38 -1205.19 1737.43 -1592.22 1884.69 -818.776C1946.4 -494.663 1978.38 -216.639 1998.05 267.534C2033.77 1146.29 1989.5 2294.91 1850.83 2254.79C1708.32 2213.54 1809.41 631.84 1690.01 64.7262Z" fill="#46E5FF"/>
</g>
<g filter="url(#filter2_f_132_386)">
<path d="M234.994 6700.02C305.344 7079.2 373.341 6857.33 440.719 7260.39C558.952 7967.65 209.841 7925.93 90.3276 7228.24C40.2452 6935.86 13.5241 6700.59 -5.11015 6317.53C-38.9322 5622.29 -12.6685 4780.9 95.0624 4914.14C205.77 5051.07 138.513 6179.98 234.994 6700.02Z" fill="#46E5FF"/>
</g>
<path d="M1920 6.85278H0V7401H1920V6.85278Z" fill="white" fill-opacity="0.5"/>
<g filter="url(#filter3_f_132_386)">
<path d="M1605 7785.61C1883.9 7785.61 2110 7297.09 2110 6694.47C2110 6091.86 1883.9 5603.34 1605 5603.34C1326.1 5603.34 1100 6091.86 1100 6694.47C1100 7297.09 1326.1 7785.61 1605 7785.61Z" fill="#1693FF" fill-opacity="0.5"/>
</g>
<g filter="url(#filter4_f_132_386)">
<path d="M2048 4783.13C2267.81 4783.13 2446 4243.24 2446 3577.26C2446 2911.27 2267.81 2371.38 2048 2371.38C1828.19 2371.38 1650 2911.27 1650 3577.26C1650 4243.24 1828.19 4783.13 2048 4783.13Z" fill="#1693FF" fill-opacity="0.5"/>
</g>
<g filter="url(#filter5_f_132_386)">
<path d="M526 8174.46C794.963 8174.46 1013 7634.57 1013 6968.58C1013 6302.6 794.963 5762.71 526 5762.71C257.037 5762.71 39 6302.6 39 6968.58C39 7634.57 257.037 8174.46 526 8174.46Z" fill="#1693FF" fill-opacity="0.5"/>
</g>
<g filter="url(#filter6_f_132_386)">
<path d="M1587 1138.94C1845.47 1138.94 2055 803.117 2055 388.855C2055 -25.4063 1845.47 -361.232 1587 -361.232C1328.53 -361.232 1119 -25.4063 1119 388.855C1119 803.117 1328.53 1138.94 1587 1138.94Z" fill="url(#paint1_linear_132_386)"/>
</g>
<g filter="url(#filter7_f_132_386)">
<path d="M1523 1138.94C1933.9 1138.94 2267 716.069 2267 194.428C2267 -327.213 1933.9 -750.087 1523 -750.087C1112.1 -750.087 779 -327.213 779 194.428C779 716.069 1112.1 1138.94 1523 1138.94Z" fill="url(#paint2_linear_132_386)"/>
</g>
<g filter="url(#filter8_f_132_386)">
<path d="M-92 7443.5C217.832 7443.5 469 7031.57 469 6523.42C469 6015.27 217.832 5603.34 -92 5603.34C-401.832 5603.34 -653 6015.27 -653 6523.42C-653 7031.57 -401.832 7443.5 -92 7443.5Z" fill="url(#paint3_linear_132_386)"/>
</g>
<g filter="url(#filter9_f_132_386)">
<path d="M1947 1478.93C2256.83 1478.93 2508 1066.99 2508 558.847C2508 50.7015 2256.83 -361.232 1947 -361.232C1637.17 -361.232 1386 50.7015 1386 558.847C1386 1066.99 1637.17 1478.93 1947 1478.93Z" fill="url(#paint4_linear_132_386)"/>
</g>
<g filter="url(#filter10_f_132_386)">
<path d="M1877.5 1478.93C2122.99 1478.93 2322 1234.9 2322 933.89C2322 632.876 2122.99 388.855 1877.5 388.855C1632.01 388.855 1433 632.876 1433 933.89C1433 1234.9 1632.01 1478.93 1877.5 1478.93Z" fill="url(#paint5_linear_132_386)"/>
</g>
<g filter="url(#filter11_f_132_386)">
<path d="M1927 1636.17C2114.78 1636.17 2267 1271.33 2267 821.271C2267 371.216 2114.78 6.37469 1927 6.37469C1739.22 6.37469 1587 371.216 1587 821.271C1587 1271.33 1739.22 1636.17 1927 1636.17Z" fill="#1693FF" fill-opacity="0.5"/>
</g>
</g>
<g clip-path="url(#clip2_132_386)">
<rect width="1920" height="12262" fill="white"/>
<path d="M1920 0H0V12262H1920V0Z" fill="#DCF8FC"/>
<g filter="url(#filter12_f_132_386)">
<path d="M1119 11982.7C1399.01 11982.7 1626 9405.46 1626 6226.33C1626 3047.2 1399.01 470.003 1119 470.003C838.992 470.003 612 3047.2 612 6226.33C612 9405.46 838.992 11982.7 1119 11982.7Z" fill="url(#paint6_linear_132_386)"/>
</g>
<g filter="url(#filter13_f_132_386)">
<path d="M1690.01 107.239C1602.95 -577.876 1511.76 52.151 1428.85 -691.624C1283.38 -1996.76 1737.43 -2637.99 1884.69 -1356.55C1946.4 -819.559 1978.38 -358.927 1998.05 443.252C2033.77 1899.18 1989.5 3802.21 1850.83 3735.74C1708.32 3667.41 1809.41 1046.83 1690.01 107.239Z" fill="#46E5FF"/>
</g>
<g filter="url(#filter14_f_132_386)">
<path d="M235.082 11101.1C305.712 11731.5 373.515 11369.4 441.193 12039C559.951 13214.2 210.904 13123.7 90.8734 11964.3C40.5741 11478.4 13.6746 11088.3 -5.25694 10454.7C-39.6187 9304.59 -14.0267 7916.92 93.7794 8143.58C204.564 8376.52 138.217 10236.4 235.082 11101.1Z" fill="#46E5FF"/>
</g>
<path d="M1920 -415.858H0V15813.2H1920V-415.858Z" fill="white" fill-opacity="0.5"/>
<path d="M1920 -415.858H0V15813.2H1920V-415.858Z" fill="white" fill-opacity="0.5"/>
<g filter="url(#filter15_f_132_386)">
<path d="M1503.5 14215.2C2043.36 14215.2 2481 13569.7 2481 12773.6C2481 11977.4 2043.36 11332 1503.5 11332C963.642 11332 526 11977.4 526 12773.6C526 13569.7 963.642 14215.2 1503.5 14215.2Z" fill="#1693FF" fill-opacity="0.5"/>
</g>
<g filter="url(#filter16_f_132_386)">
<path d="M0 13685.5C401.511 13685.5 727 13177.4 727 12550.7C727 11924 401.511 11416 0 11416C-401.511 11416 -727 11924 -727 12550.7C-727 13177.4 -401.511 13685.5 0 13685.5Z" fill="#1693FF" fill-opacity="0.5"/>
</g>
<g filter="url(#filter17_f_132_386)">
<path d="M670 13601.5C1071.51 13601.5 1397 13093.4 1397 12466.7C1397 11840 1071.51 11332 670 11332C268.489 11332 -57 11840 -57 12466.7C-57 13093.4 268.489 13601.5 670 13601.5Z" fill="#1693FF" fill-opacity="0.5"/>
</g>
<g filter="url(#filter18_f_132_386)">
<path d="M1665.5 1304.93C2025.87 1304.93 2318 837.543 2318 260.987C2318 -315.569 2025.87 -782.961 1665.5 -782.961C1305.13 -782.961 1013 -315.569 1013 260.987C1013 837.543 1305.13 1304.93 1665.5 1304.93Z" fill="#1693FF" fill-opacity="0.5"/>
</g>
<g filter="url(#filter19_f_132_386)">
<path d="M214 1072.46C556.417 1072.46 834 563.827 834 -63.6019C834 -691.031 556.417 -1199.66 214 -1199.66C-128.417 -1199.66 -406 -691.031 -406 -63.6019C-406 563.827 -128.417 1072.46 214 1072.46Z" fill="url(#paint7_linear_132_386)"/>
</g>
<g filter="url(#filter20_f_132_386)">
<path d="M93.5 1072.46C300.883 1072.46 469 791.14 469 444.116C469 97.0925 300.883 -184.226 93.5 -184.226C-113.883 -184.226 -282 97.0925 -282 444.116C-282 791.14 -113.883 1072.46 93.5 1072.46Z" fill="url(#paint8_linear_132_386)"/>
</g>
<g filter="url(#filter21_f_132_386)">
<path d="M1268 12992.3C1733.02 12992.3 2110 12678.4 2110 12291.2C2110 11903.9 1733.02 11590 1268 11590C802.976 11590 426 11903.9 426 12291.2C426 12678.4 802.976 12992.3 1268 12992.3Z" fill="url(#paint9_linear_132_386)"/>
<path d="M1575 12992.3C2040.02 12992.3 2417 12678.4 2417 12291.2C2417 11903.9 2040.02 11590 1575 11590C1109.98 11590 733 11903.9 733 12291.2C733 12678.4 1109.98 12992.3 1575 12992.3Z" fill="url(#paint10_linear_132_386)"/>
</g>
<g filter="url(#filter22_f_132_386)">
<path d="M303.5 13115.1C695.346 13115.1 1013 12773.7 1013 12352.6C1013 11931.4 695.346 11590 303.5 11590C-88.346 11590 -406 11931.4 -406 12352.6C-406 12773.7 -88.346 13115.1 303.5 13115.1Z" fill="url(#paint11_linear_132_386)"/>
</g>
<g filter="url(#filter23_f_132_386)">
<path d="M916.5 13316.9C1308.35 13316.9 1626 13018.3 1626 12650C1626 12281.6 1308.35 11983 916.5 11983C524.654 11983 207 12281.6 207 12650C207 13018.3 524.654 13316.9 916.5 13316.9Z" fill="url(#paint12_linear_132_386)"/>
</g>
<g filter="url(#filter24_f_132_386)">
<path d="M1211 644.791C1520.83 644.791 1772 170.036 1772 -415.605C1772 -1001.25 1520.83 -1476 1211 -1476C901.168 -1476 650 -1001.25 650 -415.605C650 170.036 901.168 644.791 1211 644.791Z" fill="url(#paint13_linear_132_386)"/>
</g>
<g filter="url(#filter25_f_132_386)">
<path d="M774.5 644.791C1138.18 644.791 1433 502.814 1433 327.676C1433 152.539 1138.18 10.5616 774.5 10.5616C410.82 10.5616 116 152.539 116 327.676C116 502.814 410.82 644.791 774.5 644.791Z" fill="#1693FF" fill-opacity="0.5"/>
</g>
<g filter="url(#filter26_f_132_386)">
<path d="M1771.5 829.017C1958.45 829.017 2110 618.397 2110 358.583C2110 98.7691 1958.45 -111.852 1771.5 -111.852C1584.55 -111.852 1433 98.7691 1433 358.583C1433 618.397 1584.55 829.017 1771.5 829.017Z" fill="url(#paint14_linear_132_386)"/>
</g>
<g filter="url(#filter27_f_132_386)">
<path d="M0 926.051C230.855 926.051 418 634.303 418 274.413C418 -85.4765 230.855 -377.225 0 -377.225C-230.855 -377.225 -418 -85.4765 -418 274.413C-418 634.303 -230.855 926.051 0 926.051Z" fill="url(#paint15_linear_132_386)"/>
</g>
</g>
</g>
<defs>
<filter id="filter0_f_132_386" x="212" y="-116.319" width="1814" height="7748.72" filterUnits="userSpaceOnUse" color-interpolation-filters="sRGB">
<feFlood flood-opacity="0" result="BackgroundImageFix"/>
<feBlend mode="normal" in="SourceGraphic" in2="BackgroundImageFix" result="shape"/>
<feGaussianBlur stdDeviation="200" result="effect1_foregroundBlur_132_386"/>
</filter>
<filter id="filter1_f_132_386" x="1000.49" y="-1639.47" width="1409.37" height="4295.28" filterUnits="userSpaceOnUse" color-interpolation-filters="sRGB">
<feFlood flood-opacity="0" result="BackgroundImageFix"/>
<feBlend mode="normal" in="SourceGraphic" in2="BackgroundImageFix" result="shape"/>
<feGaussianBlur stdDeviation="200" result="effect1_foregroundBlur_132_386"/>
</filter>
<filter id="filter2_f_132_386" x="-418.945" y="4500.1" width="1283.76" height="3671.44" filterUnits="userSpaceOnUse" color-interpolation-filters="sRGB">
<feFlood flood-opacity="0" result="BackgroundImageFix"/>
<feBlend mode="normal" in="SourceGraphic" in2="BackgroundImageFix" result="shape"/>
<feGaussianBlur stdDeviation="200" result="effect1_foregroundBlur_132_386"/>
</filter>
<filter id="filter3_f_132_386" x="700" y="5203.34" width="1810" height="2982.26" filterUnits="userSpaceOnUse" color-interpolation-filters="sRGB">
<feFlood flood-opacity="0" result="BackgroundImageFix"/>
<feBlend mode="normal" in="SourceGraphic" in2="BackgroundImageFix" result="shape"/>
<feGaussianBlur stdDeviation="200" result="effect1_foregroundBlur_132_386"/>
</filter>
<filter id="filter4_f_132_386" x="1250" y="1971.38" width="1596" height="3211.75" filterUnits="userSpaceOnUse" color-interpolation-filters="sRGB">
<feFlood flood-opacity="0" result="BackgroundImageFix"/>
<feBlend mode="normal" in="SourceGraphic" in2="BackgroundImageFix" result="shape"/>
<feGaussianBlur stdDeviation="200" result="effect1_foregroundBlur_132_386"/>
</filter>
<filter id="filter5_f_132_386" x="-361" y="5362.71" width="1774" height="3211.75" filterUnits="userSpaceOnUse" color-interpolation-filters="sRGB">
<feFlood flood-opacity="0" result="BackgroundImageFix"/>
<feBlend mode="normal" in="SourceGraphic" in2="BackgroundImageFix" result="shape"/>
<feGaussianBlur stdDeviation="200" result="effect1_foregroundBlur_132_386"/>
</filter>
<filter id="filter6_f_132_386" x="719" y="-761.232" width="1736" height="2300.17" filterUnits="userSpaceOnUse" color-interpolation-filters="sRGB">
<feFlood flood-opacity="0" result="BackgroundImageFix"/>
<feBlend mode="normal" in="SourceGraphic" in2="BackgroundImageFix" result="shape"/>
<feGaussianBlur stdDeviation="200" result="effect1_foregroundBlur_132_386"/>
</filter>
<filter id="filter7_f_132_386" x="379" y="-1150.09" width="2288" height="2689.03" filterUnits="userSpaceOnUse" color-interpolation-filters="sRGB">
<feFlood flood-opacity="0" result="BackgroundImageFix"/>
<feBlend mode="normal" in="SourceGraphic" in2="BackgroundImageFix" result="shape"/>
<feGaussianBlur stdDeviation="200" result="effect1_foregroundBlur_132_386"/>
</filter>
<filter id="filter8_f_132_386" x="-1053" y="5203.34" width="1922" height="2640.16" filterUnits="userSpaceOnUse" color-interpolation-filters="sRGB">
<feFlood flood-opacity="0" result="BackgroundImageFix"/>
<feBlend mode="normal" in="SourceGraphic" in2="BackgroundImageFix" result="shape"/>
<feGaussianBlur stdDeviation="200" result="effect1_foregroundBlur_132_386"/>
</filter>
<filter id="filter9_f_132_386" x="986" y="-761.232" width="1922" height="2640.16" filterUnits="userSpaceOnUse" color-interpolation-filters="sRGB">
<feFlood flood-opacity="0" result="BackgroundImageFix"/>
<feBlend mode="normal" in="SourceGraphic" in2="BackgroundImageFix" result="shape"/>
<feGaussianBlur stdDeviation="200" result="effect1_foregroundBlur_132_386"/>
</filter>
<filter id="filter10_f_132_386" x="1033" y="-11.1447" width="1689" height="1890.07" filterUnits="userSpaceOnUse" color-interpolation-filters="sRGB">
<feFlood flood-opacity="0" result="BackgroundImageFix"/>
<feBlend mode="normal" in="SourceGraphic" in2="BackgroundImageFix" result="shape"/>
<feGaussianBlur stdDeviation="200" result="effect1_foregroundBlur_132_386"/>
</filter>
<filter id="filter11_f_132_386" x="1187" y="-393.625" width="1480" height="2429.79" filterUnits="userSpaceOnUse" color-interpolation-filters="sRGB">
<feFlood flood-opacity="0" result="BackgroundImageFix"/>
<feBlend mode="normal" in="SourceGraphic" in2="BackgroundImageFix" result="shape"/>
<feGaussianBlur stdDeviation="200" result="effect1_foregroundBlur_132_386"/>
</filter>
<filter id="filter12_f_132_386" x="212" y="70.0034" width="1814" height="12312.7" filterUnits="userSpaceOnUse" color-interpolation-filters="sRGB">
<feFlood flood-opacity="0" result="BackgroundImageFix"/>
<feBlend mode="normal" in="SourceGraphic" in2="BackgroundImageFix" result="shape"/>
<feGaussianBlur stdDeviation="200" result="effect1_foregroundBlur_132_386"/>
</filter>
<filter id="filter13_f_132_386" x="1000.49" y="-2453.56" width="1409.37" height="6590.99" filterUnits="userSpaceOnUse" color-interpolation-filters="sRGB">
<feFlood flood-opacity="0" result="BackgroundImageFix"/>
<feBlend mode="normal" in="SourceGraphic" in2="BackgroundImageFix" result="shape"/>
<feGaussianBlur stdDeviation="200" result="effect1_foregroundBlur_132_386"/>
</filter>
<filter id="filter14_f_132_386" x="-419.542" y="7719.03" width="1285.02" height="5559.2" filterUnits="userSpaceOnUse" color-interpolation-filters="sRGB">
<feFlood flood-opacity="0" result="BackgroundImageFix"/>
<feBlend mode="normal" in="SourceGraphic" in2="BackgroundImageFix" result="shape"/>
<feGaussianBlur stdDeviation="200" result="effect1_foregroundBlur_132_386"/>
</filter>
<filter id="filter15_f_132_386" x="126" y="10932" width="2755" height="3683.16" filterUnits="userSpaceOnUse" color-interpolation-filters="sRGB">
<feFlood flood-opacity="0" result="BackgroundImageFix"/>
<feBlend mode="normal" in="SourceGraphic" in2="BackgroundImageFix" result="shape"/>
<feGaussianBlur stdDeviation="200" result="effect1_foregroundBlur_132_386"/>
</filter>
<filter id="filter16_f_132_386" x="-1127" y="11016" width="2254" height="3069.47" filterUnits="userSpaceOnUse" color-interpolation-filters="sRGB">
<feFlood flood-opacity="0" result="BackgroundImageFix"/>
<feBlend mode="normal" in="SourceGraphic" in2="BackgroundImageFix" result="shape"/>
<feGaussianBlur stdDeviation="200" result="effect1_foregroundBlur_132_386"/>
</filter>
<filter id="filter17_f_132_386" x="-457" y="10932" width="2254" height="3069.47" filterUnits="userSpaceOnUse" color-interpolation-filters="sRGB">
<feFlood flood-opacity="0" result="BackgroundImageFix"/>
<feBlend mode="normal" in="SourceGraphic" in2="BackgroundImageFix" result="shape"/>
<feGaussianBlur stdDeviation="200" result="effect1_foregroundBlur_132_386"/>
</filter>
<filter id="filter18_f_132_386" x="613" y="-1182.96" width="2105" height="2887.9" filterUnits="userSpaceOnUse" color-interpolation-filters="sRGB">
<feFlood flood-opacity="0" result="BackgroundImageFix"/>
<feBlend mode="normal" in="SourceGraphic" in2="BackgroundImageFix" result="shape"/>
<feGaussianBlur stdDeviation="200" result="effect1_foregroundBlur_132_386"/>
</filter>
<filter id="filter19_f_132_386" x="-806" y="-1599.66" width="2040" height="3072.12" filterUnits="userSpaceOnUse" color-interpolation-filters="sRGB">
<feFlood flood-opacity="0" result="BackgroundImageFix"/>
<feBlend mode="normal" in="SourceGraphic" in2="BackgroundImageFix" result="shape"/>
<feGaussianBlur stdDeviation="200" result="effect1_foregroundBlur_132_386"/>
</filter>
<filter id="filter20_f_132_386" x="-682" y="-584.226" width="1551" height="2056.69" filterUnits="userSpaceOnUse" color-interpolation-filters="sRGB">
<feFlood flood-opacity="0" result="BackgroundImageFix"/>
<feBlend mode="normal" in="SourceGraphic" in2="BackgroundImageFix" result="shape"/>
<feGaussianBlur stdDeviation="200" result="effect1_foregroundBlur_132_386"/>
</filter>
<filter id="filter21_f_132_386" x="26" y="11190" width="2791" height="2202.33" filterUnits="userSpaceOnUse" color-interpolation-filters="sRGB">
<feFlood flood-opacity="0" result="BackgroundImageFix"/>
<feBlend mode="normal" in="SourceGraphic" in2="BackgroundImageFix" result="shape"/>
<feGaussianBlur stdDeviation="200" result="effect1_foregroundBlur_132_386"/>
</filter>
<filter id="filter22_f_132_386" x="-806" y="11190" width="2219" height="2325.14" filterUnits="userSpaceOnUse" color-interpolation-filters="sRGB">
<feFlood flood-opacity="0" result="BackgroundImageFix"/>
<feBlend mode="normal" in="SourceGraphic" in2="BackgroundImageFix" result="shape"/>
<feGaussianBlur stdDeviation="200" result="effect1_foregroundBlur_132_386"/>
</filter>
<filter id="filter23_f_132_386" x="-193" y="11583" width="2219" height="2133.91" filterUnits="userSpaceOnUse" color-interpolation-filters="sRGB">
<feFlood flood-opacity="0" result="BackgroundImageFix"/>
<feBlend mode="normal" in="SourceGraphic" in2="BackgroundImageFix" result="shape"/>
<feGaussianBlur stdDeviation="200" result="effect1_foregroundBlur_132_386"/>
</filter>
<filter id="filter24_f_132_386" x="250" y="-1876" width="1922" height="2920.79" filterUnits="userSpaceOnUse" color-interpolation-filters="sRGB">
<feFlood flood-opacity="0" result="BackgroundImageFix"/>
<feBlend mode="normal" in="SourceGraphic" in2="BackgroundImageFix" result="shape"/>
<feGaussianBlur stdDeviation="200" result="effect1_foregroundBlur_132_386"/>
</filter>
<filter id="filter25_f_132_386" x="-284" y="-389.438" width="2117" height="1434.23" filterUnits="userSpaceOnUse" color-interpolation-filters="sRGB">
<feFlood flood-opacity="0" result="BackgroundImageFix"/>
<feBlend mode="normal" in="SourceGraphic" in2="BackgroundImageFix" result="shape"/>
<feGaussianBlur stdDeviation="200" result="effect1_foregroundBlur_132_386"/>
</filter>
<filter id="filter26_f_132_386" x="1033" y="-511.852" width="1477" height="1740.87" filterUnits="userSpaceOnUse" color-interpolation-filters="sRGB">
<feFlood flood-opacity="0" result="BackgroundImageFix"/>
<feBlend mode="normal" in="SourceGraphic" in2="BackgroundImageFix" result="shape"/>
<feGaussianBlur stdDeviation="200" result="effect1_foregroundBlur_132_386"/>
</filter>
<filter id="filter27_f_132_386" x="-818" y="-777.225" width="1636" height="2103.28" filterUnits="userSpaceOnUse" color-interpolation-filters="sRGB">
<feFlood flood-opacity="0" result="BackgroundImageFix"/>
<feBlend mode="normal" in="SourceGraphic" in2="BackgroundImageFix" result="shape"/>
<feGaussianBlur stdDeviation="200" result="effect1_foregroundBlur_132_386"/>
</filter>
<linearGradient id="paint0_linear_132_386" x1="1119" y1="283.681" x2="1119" y2="7232.4" gradientUnits="userSpaceOnUse">
<stop stop-color="#FCD8FF"/>
<stop offset="1" stop-color="#FDFDFD"/>
</linearGradient>
<linearGradient id="paint1_linear_132_386" x1="1410.92" y1="-301.799" x2="1914.16" y2="1013.8" gradientUnits="userSpaceOnUse">
<stop stop-color="#FCE4FE"/>
<stop offset="0.715" stop-color="#FEC2FE"/>
</linearGradient>
<linearGradient id="paint2_linear_132_386" x1="1243.08" y1="-675.248" x2="1770.07" y2="1064.08" gradientUnits="userSpaceOnUse">
<stop stop-color="#FCE4FE"/>
<stop offset="0.715" stop-color="#42E2FB"/>
</linearGradient>
<linearGradient id="paint3_linear_132_386" x1="-303.069" y1="5676.24" x2="324.819" y2="7280.34" gradientUnits="userSpaceOnUse">
<stop stop-color="#FCE4FE"/>
<stop offset="0.715" stop-color="#FEC2FE"/>
</linearGradient>
<linearGradient id="paint4_linear_132_386" x1="1735.93" y1="-288.329" x2="2363.82" y2="1315.77" gradientUnits="userSpaceOnUse">
<stop stop-color="#FCE4FE"/>
<stop offset="0.715" stop-color="#FEC2FE"/>
</linearGradient>
<linearGradient id="paint5_linear_132_386" x1="1710.26" y1="432.041" x2="2005.65" y2="1441.42" gradientUnits="userSpaceOnUse">
<stop stop-color="#FCE4FE"/>
<stop offset="0.715" stop-color="#FEC2FE"/>
</linearGradient>
<linearGradient id="paint6_linear_132_386" x1="1119" y1="470.003" x2="1119" y2="11982.7" gradientUnits="userSpaceOnUse">
<stop stop-color="#FCD8FF"/>
<stop offset="1" stop-color="#FDFDFD"/>
</linearGradient>
<linearGradient id="paint7_linear_132_386" x1="-19.2673" y1="-1109.65" x2="819.255" y2="807.769" gradientUnits="userSpaceOnUse">
<stop stop-color="#FCE4FE"/>
<stop offset="0.715" stop-color="#FEC2FE"/>
</linearGradient>
<linearGradient id="paint8_linear_132_386" x1="-47.7772" y1="-134.439" x2="387.353" y2="955.103" gradientUnits="userSpaceOnUse">
<stop stop-color="#FCE4FE"/>
<stop offset="0.715" stop-color="#42E2FB"/>
</linearGradient>
<linearGradient id="paint9_linear_132_386" x1="951.208" y1="11645.6" x2="1220.74" y2="13001.7" gradientUnits="userSpaceOnUse">
<stop stop-color="#FCE4FE"/>
<stop offset="0.715" stop-color="#FEC2FE"/>
</linearGradient>
<linearGradient id="paint10_linear_132_386" x1="1258.21" y1="11645.6" x2="1527.74" y2="13001.7" gradientUnits="userSpaceOnUse">
<stop stop-color="#FCE4FE"/>
<stop offset="0.715" stop-color="#FEC2FE"/>
</linearGradient>
<linearGradient id="paint11_linear_132_386" x1="36.5594" y1="11650.4" x2="405.569" y2="13089" gradientUnits="userSpaceOnUse">
<stop stop-color="#FCE4FE"/>
<stop offset="0.715" stop-color="#FEC2FE"/>
</linearGradient>
<linearGradient id="paint12_linear_132_386" x1="649.559" y1="12035.8" x2="935.991" y2="13312.5" gradientUnits="userSpaceOnUse">
<stop stop-color="#FCE4FE"/>
<stop offset="0.715" stop-color="#FEC2FE"/>
</linearGradient>
<linearGradient id="paint13_linear_132_386" x1="999.931" y1="-1391.98" x2="1799.08" y2="379.494" gradientUnits="userSpaceOnUse">
<stop stop-color="#FCE4FE"/>
<stop offset="0.715" stop-color="#FEC2FE"/>
</linearGradient>
<linearGradient id="paint14_linear_132_386" x1="1644.14" y1="-74.5767" x2="1926.77" y2="777.516" gradientUnits="userSpaceOnUse">
<stop stop-color="#FCE4FE"/>
<stop offset="0.715" stop-color="#FEC2FE"/>
</linearGradient>
<linearGradient id="paint15_linear_132_386" x1="-157.267" y1="-325.592" x2="270.921" y2="825.251" gradientUnits="userSpaceOnUse">
<stop stop-color="#FCE4FE"/>
<stop offset="0.715" stop-color="#FEC2FE"/>
</linearGradient>
<clipPath id="clip0_132_386">
<rect width="1920" height="12262" fill="white"/>
</clipPath>
<clipPath id="clip1_132_386">
<rect width="1920" height="7401" fill="white"/>
</clipPath>
<clipPath id="clip2_132_386">
<rect width="1920" height="12262" fill="white"/>
</clipPath>
</defs>
</svg>
