<?xml version="1.0" standalone="no"?>
<!DOCTYPE svg PUBLIC "-//W3C//DTD SVG 1.0//EN" "http://www.w3.org/TR/2001/REC-SVG-20010904/DTD/svg10.dtd">
<svg xmlns="http://www.w3.org/2000/svg" xmlns:xlink="http://www.w3.org/1999/xlink" id="body_1" width="46" height="29">

<g transform="matrix(0.2265625 0 0 0.2265625 0.57031274 -0)">
    <path d="M23 21C 23 14.924868 27.924868 10 34 10L34 10L166 10C 172.07513 10 177 14.924868 177 21L177 21L177 105C 177 111.075134 172.07513 116 166 116L166 116L34 116C 27.924868 116 23 111.075134 23 105L23 105L23 21z" stroke="#4B5563" stroke-width="8" fill="none" />
    <path d="M23 95L177 95" stroke="#4B5563" stroke-width="4" fill="none" />
    <path d="M68 104.5C 68 105.19036 67.75593 105.77962 67.26777 106.26777C 66.77962 106.75593 66.19036 107 65.5 107C 64.80965 107 64.22039 106.75593 63.73223 106.26777C 63.24408 105.77962 63 105.19036 63 104.5C 63 103.80965 63.24408 103.22039 63.73223 102.73223C 64.22039 102.24408 64.80965 102 65.5 102C 66.19036 102 66.77962 102.24408 67.26777 102.73223C 67.75593 103.22039 68 103.80965 68 104.5C 68 104.5291 67.9995 104.55818 67.998474 104.58725" stroke="none" fill="#4B5563" fill-rule="nonzero" />
    <path d="M42 104.5C 42 105.19036 41.755924 105.77962 41.26777 106.26777C 40.779613 106.75593 40.190357 107 39.5 107C 38.809647 107 38.22039 106.75593 37.73223 106.26777C 37.24408 105.77962 37 105.19036 37 104.5C 37 103.80965 37.24408 103.22039 37.73223 102.73223C 38.22039 102.24408 38.809647 102 39.5 102C 40.190357 102 40.779613 102.24408 41.26777 102.73223C 41.755924 103.22039 42 103.80965 42 104.5C 42 104.5291 41.999493 104.55818 41.998478 104.58725" stroke="none" fill="#4B5563" fill-rule="nonzero" />
    <path d="M55 104.5C 55 105.19036 54.755924 105.77962 54.26777 106.26777C 53.779613 106.75593 53.190357 107 52.5 107C 51.809647 107 51.22039 106.75593 50.73223 106.26777C 50.24408 105.77962 50.000004 105.19036 50 104.5C 50.000004 103.80965 50.24408 103.22039 50.73223 102.73223C 51.22039 102.24408 51.809647 102 52.5 102C 53.190357 102 53.779613 102.24408 54.26777 102.73223C 54.755924 103.22039 55 103.80965 55 104.5C 55 104.5291 54.999496 104.55818 54.998478 104.58725" stroke="none" fill="#4B5563" fill-rule="nonzero" />
    <path d="M36 70L48 70L48 95L36 95z" stroke="#4B5563" stroke-width="4" fill="none" />
    <path d="M65 50L77 50L77 95L65 95z" stroke="#4B5563" stroke-width="4" fill="none" />
    <path d="M94 58L106 58L106 95L94 95z" stroke="#4B5563" stroke-width="4" fill="none" />
    <path d="M123 81L135 81L135 95L123 95z" stroke="#4B5563" stroke-width="4" fill="none" />
    <path d="M152 65L164 65L164 95L152 95z" stroke="#4B5563" stroke-width="4" fill="none" />
    <path d="M48 57.5C 48 60.4179 45.4373 63 42 63C 38.5627 63 36 60.4179 36 57.5C 36 54.5821 38.5627 52 42 52C 45.4373 52 48 54.5821 48 57.5z" stroke="#4B5563" stroke-width="4" fill="none" />
    <path d="M77 37.5C 77 40.4179 74.4373 43 71 43C 67.5627 43 65 40.4179 65 37.5C 65 34.5821 67.5627 32 71 32C 74.4373 32 77 34.5821 77 37.5z" stroke="#4B5563" stroke-width="4" fill="none" />
    <path d="M106 45.5C 106 48.4179 103.437 51 100 51C 96.5627 51 94 48.4179 94 45.5C 94 42.5821 96.5627 40 100 40C 103.437 40 106 42.5821 106 45.5z" stroke="#4B5563" stroke-width="4" fill="none" />
    <path d="M135 68.5C 135 71.4179 132.437 74 129 74C 125.563 74 123 71.4179 123 68.5C 123 65.5821 125.563 63 129 63C 132.437 63 135 65.5821 135 68.5z" stroke="#4B5563" stroke-width="4" fill="none" />
    <path d="M164 52.5C 164 55.4179 161.437 58 158 58C 154.563 58 152 55.4179 152 52.5C 152 49.5821 154.563 47 158 47C 161.437 47 164 49.5821 164 52.5z" stroke="#4B5563" stroke-width="4" fill="none" />
    <path d="M45.8531 54.3615L65.8531 40.3615" stroke="#4B5563" stroke-width="4" fill="none" />
    <path d="M94.3344 43.886L77.3344 37.8859" stroke="#4B5563" stroke-width="4" fill="none" />
    <path d="M124.742 64.5545L103.742 47.5545" stroke="#4B5563" stroke-width="4" fill="none" />
    <path d="M153.921 55.7752L133.921 66.1552" stroke="#4B5563" stroke-width="4" fill="none" />
</g>
</svg>