<svg width="118" height="117" viewBox="0 0 118 117" fill="none" xmlns="http://www.w3.org/2000/svg">
<rect x="1" width="117" height="117" rx="13" fill="#CEBDD2"/>
<path d="M28.3869 58H28.0989L35.2749 41.2L35.5389 41.08L41.5869 58H39.5469L37.6749 52.72H30.6669L28.3869 58ZM34.5309 43.792L30.7629 52.48H37.6029L34.5309 43.792ZM43.0342 40.024H44.7142V48.976C44.9862 48.24 45.4902 47.544 46.2262 46.888C46.9622 46.232 47.7942 45.904 48.7222 45.904C51.9702 45.904 53.5942 47.808 53.5942 51.616C53.5942 55.936 51.4982 58.096 47.3062 58.096C46.0742 58.096 44.6502 57.896 43.0342 57.496V40.024ZM48.6982 46.096C47.7062 46.096 46.8102 46.528 46.0102 47.392C45.2102 48.24 44.7782 49.008 44.7142 49.696V57.352C45.6902 57.72 46.5462 57.904 47.2822 57.904C50.3702 57.904 51.9142 55.8 51.9142 51.592C51.9142 47.928 50.8422 46.096 48.6982 46.096ZM61.191 58.096C59.511 58.096 58.143 57.616 57.087 56.656C56.031 55.696 55.503 54.216 55.503 52.216C55.503 50.216 56.047 48.664 57.135 47.56C58.239 46.456 59.631 45.904 61.311 45.904C63.007 45.904 64.383 46.384 65.439 47.344C66.495 48.304 67.023 49.784 67.023 51.784C67.023 53.784 66.471 55.336 65.367 56.44C64.279 57.544 62.887 58.096 61.191 58.096ZM61.359 46.096C60.143 46.096 59.135 46.64 58.335 47.728C57.535 48.8 57.135 50.304 57.135 52.24C57.135 54.16 57.503 55.584 58.239 56.512C58.975 57.44 59.951 57.904 61.167 57.904C62.383 57.904 63.391 57.368 64.191 56.296C64.991 55.208 65.391 53.704 65.391 51.784C65.391 49.848 65.023 48.416 64.287 47.488C63.551 46.56 62.575 46.096 61.359 46.096ZM70.6127 55.24C70.6127 56.504 70.9487 57.312 71.6207 57.664C71.9407 57.824 72.3487 57.904 72.8447 57.904C73.8527 57.904 74.7487 57.52 75.5327 56.752C76.3327 55.984 76.7647 55.272 76.8287 54.616V46H78.5087V56.296C78.5087 56.76 78.5967 57.12 78.7727 57.376C78.9647 57.616 79.1567 57.744 79.3487 57.76L79.6127 57.808H80.3567V58H78.8927C78.2367 58 77.7327 57.856 77.3807 57.568C77.0447 57.28 76.8687 56.992 76.8527 56.704L76.8287 56.296V55.264C76.5407 55.952 76.0287 56.6 75.2927 57.208C74.5567 57.8 73.7487 58.096 72.8687 58.096C72.0047 58.096 71.2927 58.016 70.7327 57.856C70.1887 57.68 69.7967 57.44 69.5567 57.136C69.1407 56.64 68.9327 56 68.9327 55.216V46H70.6127V55.24ZM81.4455 46.192V46H81.9495V43.6H83.6295V46H87.3015V46.192H83.6295V54.928C83.6295 55.968 83.7415 56.72 83.9655 57.184C84.2055 57.648 84.6935 57.88 85.4295 57.88C86.1815 57.88 86.9415 57.728 87.7095 57.424L87.7815 57.616C86.9815 57.92 86.0615 58.072 85.0215 58.072C83.9975 58.072 83.2295 57.864 82.7175 57.448C82.2055 57.016 81.9495 56.168 81.9495 54.904V46.192H81.4455ZM44.4736 86H44.1616L46.2496 69.2H47.0416L52.0816 84.728L57.0976 69.2H57.8896L59.9776 86H57.9856L56.3296 72.56L51.9856 86H50.4736L46.0816 72.728L44.4736 86ZM64.0139 80.144C64.0139 82.128 64.3579 83.584 65.0459 84.512C65.7499 85.44 66.6699 85.904 67.8059 85.904C69.4059 85.904 70.8299 85.664 72.0779 85.184L72.1499 85.352C70.8699 85.848 69.4219 86.096 67.8059 86.096C66.2059 86.096 64.9019 85.616 63.8939 84.656C62.8859 83.696 62.3819 82.216 62.3819 80.216C62.3819 78.216 62.9099 76.664 63.9659 75.56C65.0219 74.456 66.3659 73.904 67.9979 73.904C69.3099 73.904 70.4139 74.296 71.3099 75.08C72.2059 75.864 72.6539 77.024 72.6539 78.56C72.6539 78.64 72.6539 78.72 72.6539 78.8H64.0859C64.0379 79.232 64.0139 79.68 64.0139 80.144ZM71.0219 78.608C71.0059 77.072 70.7099 75.936 70.1339 75.2C69.5579 74.464 68.8139 74.096 67.9019 74.096C66.9899 74.096 66.1739 74.496 65.4539 75.296C64.7499 76.096 64.3019 77.2 64.1099 78.608H71.0219Z" fill="black"/>
</svg>
