<svg width="117" height="117" viewBox="0 0 117 117" fill="none" xmlns="http://www.w3.org/2000/svg">
<rect width="117" height="117" rx="13" fill="#F1B4B0"/>
<path d="M29.0604 68.096C26.0684 68.096 23.8524 67.248 22.4124 65.552C21.9004 64.944 21.4844 64.136 21.1644 63.128C20.8444 62.12 20.6844 60.896 20.6844 59.456C20.6844 58.016 20.9164 56.728 21.3804 55.592C21.8604 54.44 22.5084 53.552 23.3244 52.928C24.9084 51.76 26.8204 51.176 29.0604 51.176C29.7004 51.176 30.3244 51.232 30.9324 51.344C31.5404 51.44 31.9964 51.544 32.3004 51.656L32.7324 51.824L32.6604 52.064C31.5724 51.632 30.3724 51.416 29.0604 51.416C27.3644 51.416 25.9484 51.968 24.8124 53.072C23.9484 53.888 23.3404 55.088 22.9884 56.672C22.7804 57.568 22.6764 58.664 22.6764 59.96C22.6764 61.256 22.8604 62.456 23.2284 63.56C23.5964 64.648 24.0124 65.456 24.4764 65.984C24.9564 66.512 25.5324 66.936 26.2044 67.256C26.8764 67.56 27.4124 67.736 27.8124 67.784C28.2124 67.832 28.6924 67.856 29.2524 67.856C29.8284 67.856 30.4764 67.8 31.1964 67.688C31.9164 67.576 32.4604 67.472 32.8284 67.376L33.3804 67.208L33.4524 67.448C32.2364 67.88 30.7724 68.096 29.0604 68.096ZM40.4761 68.096C38.7961 68.096 37.4281 67.616 36.3721 66.656C35.3161 65.696 34.7881 64.216 34.7881 62.216C34.7881 60.216 35.3321 58.664 36.4201 57.56C37.5241 56.456 38.9161 55.904 40.5961 55.904C42.2921 55.904 43.6681 56.384 44.7241 57.344C45.7801 58.304 46.3081 59.784 46.3081 61.784C46.3081 63.784 45.7561 65.336 44.6521 66.44C43.5641 67.544 42.1721 68.096 40.4761 68.096ZM40.6441 56.096C39.4281 56.096 38.4201 56.64 37.6201 57.728C36.8201 58.8 36.4201 60.304 36.4201 62.24C36.4201 64.16 36.7881 65.584 37.5241 66.512C38.2601 67.44 39.2361 67.904 40.4521 67.904C41.6681 67.904 42.6761 67.368 43.4761 66.296C44.2761 65.208 44.6761 63.704 44.6761 61.784C44.6761 59.848 44.3081 58.416 43.5721 57.488C42.8361 56.56 41.8601 56.096 40.6441 56.096ZM57.7091 68C57.0531 68 56.5491 67.856 56.1971 67.568C55.8611 67.28 55.6851 66.992 55.6691 66.704L55.6451 66.296V58.76C55.6451 57.496 55.3171 56.688 54.6611 56.336C54.3251 56.176 53.9091 56.096 53.4131 56.096C52.3891 56.096 51.4691 56.504 50.6531 57.32C49.8371 58.12 49.4291 58.84 49.4291 59.48V68H47.7491V56H49.4291V58.736C49.7011 58.048 50.2051 57.408 50.9411 56.816C51.6771 56.208 52.4851 55.904 53.3651 55.904C54.2451 55.904 54.9571 55.992 55.5011 56.168C56.0611 56.328 56.4691 56.56 56.7251 56.864C57.1251 57.36 57.3251 58 57.3251 58.784V66.296C57.3251 66.76 57.4131 67.12 57.5891 67.376C57.7811 67.616 57.9731 67.744 58.1651 67.76L58.4291 67.808H59.1731V68H57.7091ZM60.2619 56.192V56H60.7659V53.6H62.4459V56H66.1179V56.192H62.4459V64.928C62.4459 65.968 62.5579 66.72 62.7819 67.184C63.0219 67.648 63.5099 67.88 64.2459 67.88C64.9979 67.88 65.7579 67.728 66.5259 67.424L66.5979 67.616C65.7979 67.92 64.8779 68.072 63.8379 68.072C62.8139 68.072 62.0459 67.864 61.5339 67.448C61.0219 67.016 60.7659 66.168 60.7659 64.904V56.192H60.2619ZM77.8408 68C76.7528 68 76.0088 67.792 75.6088 67.376C75.2408 67.024 75.0568 66.72 75.0568 66.464V65.96C74.2728 67.384 73.0168 68.096 71.2888 68.096C69.2728 68.096 68.1288 67.184 67.8568 65.36C67.8248 65.168 67.8088 64.976 67.8088 64.784C67.8088 64.576 67.8408 64.352 67.9048 64.112C67.9688 63.872 68.1528 63.608 68.4568 63.32C69.0648 62.744 70.4008 62.392 72.4648 62.264C72.9768 62.216 73.4488 62.192 73.8808 62.192C74.3128 62.192 74.7048 62.208 75.0568 62.24V58.256C75.0248 58.24 75.0248 58.168 75.0568 58.04C75.0888 57.896 75.0568 57.72 74.9608 57.512C74.8808 57.288 74.7688 57.072 74.6248 56.864C74.4808 56.656 74.2248 56.48 73.8568 56.336C73.4887 56.176 73.0088 56.096 72.4168 56.096C71.8248 56.096 71.1288 56.208 70.3288 56.432C69.5448 56.64 68.9688 56.848 68.6008 57.056L68.5048 56.888C69.9288 56.232 71.3768 55.904 72.8488 55.904C74.4968 55.904 75.5848 56.2 76.1128 56.792C76.5288 57.256 76.7368 57.744 76.7368 58.256V66.296C76.7368 66.76 76.8248 67.12 77.0008 67.376C77.1928 67.616 77.3848 67.744 77.5768 67.76L77.8408 67.808H78.5848V68H77.8408ZM71.6728 67.904C72.5208 67.904 73.2808 67.616 73.9528 67.04C74.6408 66.448 75.0088 65.88 75.0568 65.336V62.432C74.6248 62.4 74.1848 62.384 73.7368 62.384C73.3048 62.384 72.8728 62.408 72.4408 62.456C71.2248 62.6 70.4328 62.872 70.0648 63.272C69.6968 63.672 69.5128 64.224 69.5128 64.928C69.5128 65.056 69.5208 65.2 69.5368 65.36C69.6808 67.056 70.3928 67.904 71.6728 67.904ZM85.5213 56.096C84.3853 56.096 83.4333 56.64 82.6653 57.728C81.9133 58.816 81.5373 60.32 81.5373 62.24C81.5373 64.16 81.8813 65.584 82.5693 66.512C83.2733 67.44 84.1933 67.904 85.3293 67.904C86.7533 67.904 88.0173 67.664 89.1213 67.184L89.1933 67.352C88.0573 67.848 86.7293 68.096 85.2093 68.096C83.6893 68.096 82.4253 67.616 81.4173 66.656C80.4093 65.696 79.9053 64.216 79.9053 62.216C79.9053 60.216 80.4333 58.664 81.4893 57.56C82.5453 56.456 83.8893 55.904 85.5213 55.904C86.4333 55.904 87.2733 56.112 88.0413 56.528C88.8253 56.944 89.4013 57.576 89.7693 58.424H88.2333C87.9933 57.64 87.6253 57.056 87.1293 56.672C86.6493 56.288 86.1133 56.096 85.5213 56.096ZM91.34 56.192V56H91.844V53.6H93.524V56H97.196V56.192H93.524V64.928C93.524 65.968 93.636 66.72 93.86 67.184C94.1 67.648 94.588 67.88 95.324 67.88C96.076 67.88 96.836 67.728 97.604 67.424L97.676 67.616C96.876 67.92 95.956 68.072 94.916 68.072C93.892 68.072 93.124 67.864 92.612 67.448C92.1 67.016 91.844 66.168 91.844 64.904V56.192H91.34Z" fill="black"/>
</svg>
