<svg width="117" height="117" viewBox="0 0 117 117" fill="none" xmlns="http://www.w3.org/2000/svg">
<rect width="117" height="117" rx="13" fill="#BEFBF7"/>
<path d="M15.7398 52.2V52.44H8.17981V59.64H15.1878V59.88H8.17981V68.76H16.2678V69H6.18781V52.2H15.7398ZM17.9572 69V68.808C18.2932 68.808 18.6292 68.68 18.9652 68.424C19.3172 68.168 19.5812 67.912 19.7572 67.656L22.7572 63.24L18.4852 57H20.2372L23.9092 62.352L27.4612 57H27.7012L24.0052 62.52L28.4692 69H26.7172L22.8532 63.384L20.2612 67.272C20.2292 67.32 20.1892 67.384 20.1412 67.464C20.0932 67.544 19.9892 67.68 19.8292 67.872C19.6692 68.064 19.5012 68.232 19.3252 68.376C18.8452 68.792 18.3892 69 17.9572 69ZM30.5047 57H32.1847V59.976C32.4567 59.24 32.9607 58.544 33.6967 57.888C34.4327 57.232 35.2647 56.904 36.1927 56.904C39.4407 56.904 41.0647 58.808 41.0647 62.616C41.0647 66.936 38.9687 69.096 34.7767 69.096C34.0247 69.096 33.1607 68.92 32.1847 68.568V75H30.5047V57ZM36.1687 57.096C35.1767 57.096 34.2807 57.528 33.4807 58.392C32.6807 59.24 32.2487 60.008 32.1847 60.696V68.352C33.1607 68.72 34.0167 68.904 34.7527 68.904C37.8407 68.904 39.3847 66.8 39.3847 62.592C39.3847 58.928 38.3127 57.096 36.1687 57.096ZM44.6233 63.144C44.6233 65.128 44.9673 66.584 45.6553 67.512C46.3593 68.44 47.2793 68.904 48.4153 68.904C50.0153 68.904 51.4393 68.664 52.6873 68.184L52.7593 68.352C51.4793 68.848 50.0313 69.096 48.4153 69.096C46.8153 69.096 45.5113 68.616 44.5033 67.656C43.4953 66.696 42.9913 65.216 42.9913 63.216C42.9913 61.216 43.5193 59.664 44.5753 58.56C45.6313 57.456 46.9753 56.904 48.6073 56.904C49.9193 56.904 51.0233 57.296 51.9193 58.08C52.8153 58.864 53.2633 60.024 53.2633 61.56C53.2633 61.64 53.2633 61.72 53.2633 61.8H44.6953C44.6473 62.232 44.6233 62.68 44.6233 63.144ZM51.6313 61.608C51.6153 60.072 51.3193 58.936 50.7433 58.2C50.1673 57.464 49.4233 57.096 48.5113 57.096C47.5993 57.096 46.7833 57.496 46.0633 58.296C45.3593 59.096 44.9113 60.2 44.7193 61.608H51.6313ZM58.8253 58.032V57.528C58.1053 57.816 57.4493 58.4 56.8573 59.28C56.2653 60.144 55.9533 60.96 55.9213 61.728V69H54.2413V57H55.9213V60.816C56.1773 59.888 56.6653 59.016 57.3853 58.2C58.1053 57.368 58.9213 56.936 59.8333 56.904H59.9293C60.2493 56.904 60.5133 57.016 60.7213 57.24C60.9453 57.448 61.0573 57.712 61.0573 58.032C61.0573 58.352 60.9453 58.616 60.7213 58.824C60.5133 59.032 60.2493 59.136 59.9293 59.136C59.6093 59.136 59.3453 59.032 59.1373 58.824C58.9293 58.616 58.8253 58.352 58.8253 58.032ZM65.3143 69C64.6583 69 64.1543 68.856 63.8023 68.568C63.4663 68.28 63.2903 67.992 63.2743 67.704L63.2503 67.296V57H64.9303V67.296C64.9303 67.76 65.0183 68.12 65.1943 68.376C65.3863 68.616 65.5703 68.744 65.7463 68.76L66.0343 68.808H66.7783V69H65.3143ZM63.3943 54.312C63.2023 54.12 63.1063 53.88 63.1063 53.592C63.1063 53.304 63.2023 53.064 63.3943 52.872C63.5863 52.664 63.8263 52.56 64.1143 52.56C64.4023 52.56 64.6423 52.664 64.8343 52.872C65.0423 53.064 65.1463 53.304 65.1463 53.592C65.1463 53.88 65.0423 54.12 64.8343 54.312C64.6423 54.504 64.4023 54.6 64.1143 54.6C63.8263 54.6 63.5863 54.504 63.3943 54.312ZM69.1389 63.144C69.1389 65.128 69.4829 66.584 70.1709 67.512C70.8749 68.44 71.7949 68.904 72.9309 68.904C74.5309 68.904 75.9549 68.664 77.2029 68.184L77.2749 68.352C75.9949 68.848 74.5469 69.096 72.9309 69.096C71.3309 69.096 70.0269 68.616 69.0189 67.656C68.0109 66.696 67.5069 65.216 67.5069 63.216C67.5069 61.216 68.0349 59.664 69.0909 58.56C70.1469 57.456 71.4909 56.904 73.1229 56.904C74.4349 56.904 75.5389 57.296 76.4349 58.08C77.3309 58.864 77.7789 60.024 77.7789 61.56C77.7789 61.64 77.7789 61.72 77.7789 61.8H69.2109C69.1629 62.232 69.1389 62.68 69.1389 63.144ZM76.1469 61.608C76.1309 60.072 75.8349 58.936 75.2589 58.2C74.6829 57.464 73.9389 57.096 73.0269 57.096C72.1149 57.096 71.2989 57.496 70.5789 58.296C69.8749 59.096 69.4269 60.2 69.2349 61.608H76.1469ZM88.7169 69C88.0609 69 87.5569 68.856 87.2049 68.568C86.8689 68.28 86.6929 67.992 86.6769 67.704L86.6529 67.296V59.76C86.6529 58.496 86.3249 57.688 85.6689 57.336C85.3329 57.176 84.9169 57.096 84.4209 57.096C83.3969 57.096 82.4769 57.504 81.6609 58.32C80.8449 59.12 80.4369 59.84 80.4369 60.48V69H78.7569V57H80.4369V59.736C80.7089 59.048 81.2129 58.408 81.9489 57.816C82.6849 57.208 83.4929 56.904 84.3729 56.904C85.2529 56.904 85.9649 56.992 86.5089 57.168C87.0689 57.328 87.4769 57.56 87.7329 57.864C88.1329 58.36 88.3329 59 88.3329 59.784V67.296C88.3329 67.76 88.4209 68.12 88.5969 68.376C88.7889 68.616 88.9809 68.744 89.1729 68.76L89.4369 68.808H90.1809V69H88.7169ZM96.7713 57.096C95.6353 57.096 94.6833 57.64 93.9153 58.728C93.1633 59.816 92.7873 61.32 92.7873 63.24C92.7873 65.16 93.1313 66.584 93.8193 67.512C94.5233 68.44 95.4433 68.904 96.5793 68.904C98.0033 68.904 99.2673 68.664 100.371 68.184L100.443 68.352C99.3073 68.848 97.9793 69.096 96.4593 69.096C94.9393 69.096 93.6753 68.616 92.6673 67.656C91.6593 66.696 91.1553 65.216 91.1553 63.216C91.1553 61.216 91.6833 59.664 92.7393 58.56C93.7953 57.456 95.1393 56.904 96.7713 56.904C97.6833 56.904 98.5233 57.112 99.2913 57.528C100.075 57.944 100.651 58.576 101.019 59.424H99.4833C99.2433 58.64 98.8753 58.056 98.3793 57.672C97.8993 57.288 97.3633 57.096 96.7713 57.096ZM104.108 63.144C104.108 65.128 104.452 66.584 105.14 67.512C105.844 68.44 106.764 68.904 107.9 68.904C109.5 68.904 110.924 68.664 112.172 68.184L112.244 68.352C110.964 68.848 109.516 69.096 107.9 69.096C106.3 69.096 104.996 68.616 103.988 67.656C102.98 66.696 102.476 65.216 102.476 63.216C102.476 61.216 103.004 59.664 104.06 58.56C105.116 57.456 106.46 56.904 108.092 56.904C109.404 56.904 110.508 57.296 111.404 58.08C112.3 58.864 112.748 60.024 112.748 61.56C112.748 61.64 112.748 61.72 112.748 61.8H104.18C104.132 62.232 104.108 62.68 104.108 63.144ZM111.116 61.608C111.1 60.072 110.804 58.936 110.228 58.2C109.652 57.464 108.908 57.096 107.996 57.096C107.084 57.096 106.268 57.496 105.548 58.296C104.844 59.096 104.396 60.2 104.204 61.608H111.116Z" fill="black"/>
</svg>
