<svg width="118" height="117" viewBox="0 0 118 117" fill="none" xmlns="http://www.w3.org/2000/svg">
<rect width="117" height="117" rx="13" fill="#ECD0E4"/>
<path d="M21.1214 49.392C22.9774 49.264 24.6094 49.2 26.0174 49.2C29.9854 49.2 31.9694 50.6 31.9694 53.4C31.9694 54.696 31.6334 55.832 30.9614 56.808C30.6094 57.336 30.0654 57.76 29.3294 58.08C28.5934 58.384 27.7054 58.536 26.6654 58.536H23.1134V66H21.1214V49.392ZM26.0414 49.44C25.1134 49.44 24.1374 49.496 23.1134 49.608V58.296H26.6654C28.9214 58.2 30.0494 56.584 30.0494 53.448C30.0494 52.168 29.7134 51.184 29.0414 50.496C28.3694 49.792 27.3694 49.44 26.0414 49.44ZM38.4854 55.032V54.528C37.7654 54.816 37.1094 55.4 36.5174 56.28C35.9254 57.144 35.6134 57.96 35.5814 58.728V66H33.9014V54H35.5814V57.816C35.8374 56.888 36.3254 56.016 37.0454 55.2C37.7654 54.368 38.5814 53.936 39.4934 53.904H39.5894C39.9094 53.904 40.1734 54.016 40.3814 54.24C40.6054 54.448 40.7174 54.712 40.7174 55.032C40.7174 55.352 40.6054 55.616 40.3814 55.824C40.1734 56.032 39.9094 56.136 39.5894 56.136C39.2694 56.136 39.0054 56.032 38.7974 55.824C38.5894 55.616 38.4854 55.352 38.4854 55.032ZM47.2535 66.096C45.5735 66.096 44.2055 65.616 43.1495 64.656C42.0935 63.696 41.5655 62.216 41.5655 60.216C41.5655 58.216 42.1095 56.664 43.1975 55.56C44.3015 54.456 45.6935 53.904 47.3735 53.904C49.0695 53.904 50.4455 54.384 51.5015 55.344C52.5575 56.304 53.0855 57.784 53.0855 59.784C53.0855 61.784 52.5335 63.336 51.4295 64.44C50.3415 65.544 48.9495 66.096 47.2535 66.096ZM47.4215 54.096C46.2055 54.096 45.1975 54.64 44.3975 55.728C43.5975 56.8 43.1975 58.304 43.1975 60.24C43.1975 62.16 43.5655 63.584 44.3015 64.512C45.0375 65.44 46.0135 65.904 47.2295 65.904C48.4455 65.904 49.4535 65.368 50.2535 64.296C51.0535 63.208 51.4535 61.704 51.4535 59.784C51.4535 57.848 51.0855 56.416 50.3495 55.488C49.6135 54.56 48.6375 54.096 47.4215 54.096ZM52.1264 71.544L52.1984 71.352C52.9664 71.656 53.7184 71.808 54.4544 71.808C55.2064 71.808 55.6944 71.576 55.9184 71.112C56.1584 70.648 56.2784 69.896 56.2784 68.856V54H57.9584V68.832C57.9584 70.096 57.7024 70.936 57.1904 71.352C56.6784 71.784 55.9024 72 54.8624 72C53.8384 72 52.9264 71.848 52.1264 71.544ZM56.3984 51.312C56.2064 51.12 56.1104 50.88 56.1104 50.592C56.1104 50.304 56.2064 50.064 56.3984 49.872C56.5904 49.664 56.8304 49.56 57.1184 49.56C57.4064 49.56 57.6464 49.664 57.8384 49.872C58.0464 50.064 58.1504 50.304 58.1504 50.592C58.1504 50.88 58.0464 51.12 57.8384 51.312C57.6464 51.504 57.4064 51.6 57.1184 51.6C56.8304 51.6 56.5904 51.504 56.3984 51.312ZM61.7131 60.144C61.7131 62.128 62.0571 63.584 62.7451 64.512C63.4491 65.44 64.3691 65.904 65.5051 65.904C67.1051 65.904 68.5291 65.664 69.7771 65.184L69.8491 65.352C68.5691 65.848 67.1211 66.096 65.5051 66.096C63.9051 66.096 62.6011 65.616 61.5931 64.656C60.5851 63.696 60.0811 62.216 60.0811 60.216C60.0811 58.216 60.6091 56.664 61.6651 55.56C62.7211 54.456 64.0651 53.904 65.6971 53.904C67.0091 53.904 68.1131 54.296 69.0091 55.08C69.9051 55.864 70.3531 57.024 70.3531 58.56C70.3531 58.64 70.3531 58.72 70.3531 58.8H61.7851C61.7371 59.232 61.7131 59.68 61.7131 60.144ZM68.7211 58.608C68.7051 57.072 68.4091 55.936 67.8331 55.2C67.2571 54.464 66.5131 54.096 65.6011 54.096C64.6891 54.096 63.8731 54.496 63.1531 55.296C62.4491 56.096 62.0011 57.2 61.8091 58.608H68.7211ZM77.6737 54.096C76.5377 54.096 75.5857 54.64 74.8177 55.728C74.0657 56.816 73.6897 58.32 73.6897 60.24C73.6897 62.16 74.0337 63.584 74.7217 64.512C75.4257 65.44 76.3457 65.904 77.4817 65.904C78.9057 65.904 80.1697 65.664 81.2737 65.184L81.3457 65.352C80.2097 65.848 78.8817 66.096 77.3617 66.096C75.8417 66.096 74.5777 65.616 73.5697 64.656C72.5617 63.696 72.0577 62.216 72.0577 60.216C72.0577 58.216 72.5857 56.664 73.6417 55.56C74.6977 54.456 76.0417 53.904 77.6737 53.904C78.5857 53.904 79.4257 54.112 80.1937 54.528C80.9777 54.944 81.5537 55.576 81.9217 56.424H80.3857C80.1457 55.64 79.7777 55.056 79.2817 54.672C78.8017 54.288 78.2657 54.096 77.6737 54.096ZM83.4923 54.192V54H83.9963V51.6H85.6763V54H89.3483V54.192H85.6763V62.928C85.6763 63.968 85.7883 64.72 86.0123 65.184C86.2523 65.648 86.7403 65.88 87.4763 65.88C88.2283 65.88 88.9883 65.728 89.7563 65.424L89.8283 65.616C89.0283 65.92 88.1083 66.072 87.0683 66.072C86.0443 66.072 85.2763 65.864 84.7643 65.448C84.2523 65.016 83.9963 64.168 83.9963 62.904V54.192H83.4923ZM98.4016 54.84C98.1456 54.632 97.7296 54.456 97.1536 54.312C96.5936 54.168 96.1696 54.096 95.8816 54.096C95.5936 54.096 95.4256 54.096 95.3776 54.096C94.5136 54.112 93.8896 54.336 93.5056 54.768C93.1216 55.184 92.9296 55.656 92.9296 56.184C92.9296 56.712 93.0976 57.16 93.4336 57.528C93.7696 57.88 94.1856 58.16 94.6816 58.368C95.1936 58.56 95.7376 58.784 96.3136 59.04C96.9056 59.296 97.4496 59.56 97.9456 59.832C98.4576 60.088 98.8816 60.472 99.2176 60.984C99.5536 61.48 99.7216 62.104 99.7216 62.856C99.7216 63.608 99.4576 64.248 98.9296 64.776C98.4016 65.304 97.8096 65.656 97.1536 65.832C96.5136 66.008 95.8176 66.096 95.0656 66.096C93.4336 66.096 92.2096 65.736 91.3936 65.016L91.5376 64.872C91.8576 65.176 92.3296 65.424 92.9536 65.616C93.5936 65.808 94.2096 65.904 94.8016 65.904C95.7456 65.904 96.5216 65.648 97.1296 65.136C97.7536 64.608 98.0656 63.96 98.0656 63.192C98.0656 62.408 97.8336 61.784 97.3696 61.32C96.9056 60.84 96.3376 60.472 95.6656 60.216C95.0096 59.944 94.3456 59.68 93.6736 59.424C93.0016 59.152 92.4336 58.784 91.9696 58.32C91.5056 57.84 91.2736 57.288 91.2736 56.664C91.2736 56.04 91.4176 55.536 91.7056 55.152C91.9936 54.752 92.3776 54.472 92.8576 54.312C93.6736 54.04 94.4896 53.904 95.3056 53.904C96.6816 53.904 97.7536 54.16 98.5216 54.672L98.4016 54.84Z" fill="black"/>
</svg>
